Coordinates
version=1
nRows=65
nColumns=12
inDegrees=yes

Units are S.I. units (second, meters, Newtons, ...)
Angles are in degrees

endheader
time	SC_y	SC_z	SC_x	AC_y	AC_z	AC_x	GH_y	GH_z	GH_yy	EL_x	PS_y
       0.0              -33.89          -3.78          75.32          61.61         -3.706          17.85          108.4          8.804         -153.3           97.2          150.8
   0.02176              -33.89         -3.779          75.32          61.61         -3.705          17.84          108.4          8.801         -153.3          97.19          150.8
   0.04352              -33.89         -3.777          75.31          61.61         -3.703          17.84          108.3          8.797         -153.3          97.18          150.8
   0.06527               -33.9         -3.774          75.31           61.6         -3.702          17.83          108.3          8.793         -153.2          97.17          150.8
   0.08703               -33.9         -3.772           75.3           61.6         -3.701          17.83          108.3          8.789         -153.2          97.16          150.8
    0.1088               -33.9          -3.77          75.29          61.59         -3.699          17.82          108.2          8.785         -153.1          97.15          150.8
    0.1305              -33.91         -3.767          75.29          61.59         -3.698          17.81          108.2          8.781         -153.0          97.13          150.7
    0.1523              -33.91         -3.765          75.28          61.58         -3.696          17.81          108.2          8.776         -153.0          97.12          150.7
    0.1741              -33.91         -3.762          75.27          61.58         -3.694           17.8          108.1          8.771         -152.9          97.11          150.7
    0.1958              -33.92         -3.759          75.26          61.57         -3.693          17.79          108.1          8.765         -152.8          97.09          150.7
    0.2176              -33.92         -3.755          75.26          61.57         -3.691          17.78          108.0          8.759         -152.8          97.07          150.7
    0.2393              -33.93         -3.752          75.25          61.56         -3.688          17.77          108.0          8.753         -152.7          97.05          150.7
    0.2611              -33.94         -3.748          75.23          61.56         -3.686          17.76          107.9          8.746         -152.6          97.04          150.6
    0.2829              -33.94         -3.743          75.22          61.55         -3.683          17.75          107.8          8.738         -152.5          97.01          150.6
    0.3046              -33.95         -3.739          75.21          61.54         -3.681          17.74          107.8           8.73         -152.4          96.99          150.6
    0.3264              -33.95         -3.734           75.2          61.53         -3.678          17.73          107.7          8.722         -152.3          96.97          150.6
    0.3481              -33.96         -3.729          75.18          61.52         -3.675          17.71          107.6          8.712         -152.2          96.94          150.5
    0.3699              -33.97         -3.723          75.17          61.51         -3.671           17.7          107.5          8.702         -152.0          96.91          150.5
    0.3916              -33.98         -3.716          75.15           61.5         -3.667          17.68          107.4           8.69         -151.9          96.88          150.5
    0.4134              -33.99         -3.709          75.13          61.49         -3.663          17.66          107.3          8.678         -151.7          96.84          150.4
    0.4352               -34.0         -3.702          75.11          61.48         -3.658          17.64          107.2          8.664         -151.5           96.8          150.4
    0.4569              -34.01         -3.693          75.09          61.46         -3.653          17.62          107.1          8.649         -151.3          96.76          150.3
    0.4787              -34.03         -3.684          75.06          61.45         -3.648           17.6          107.0          8.633         -151.1          96.72          150.3
    0.5004              -34.04         -3.674          75.03          61.43         -3.641          17.57          106.8          8.615         -150.9          96.66          150.2
    0.5222              -34.06         -3.662           75.0          61.41         -3.635          17.54          106.6          8.594         -150.6          96.61          150.2
    0.5439              -34.08         -3.649          74.97          61.39         -3.627          17.51          106.5          8.572         -150.3          96.54          150.1
    0.5657               -34.1         -3.635          74.93          61.36         -3.618          17.47          106.2          8.546         -150.0          96.47          150.0
    0.5875              -34.12         -3.619          74.89          61.33         -3.608          17.43          106.0          8.517         -149.6          96.39          149.9
    0.6092              -34.15           -3.6          74.84           61.3         -3.597          17.39          105.7          8.485         -149.2           96.3          149.8
     0.631              -34.18          -3.58          74.78          61.27         -3.585          17.33          105.4          8.448         -148.7          96.19          149.7
    0.6527              -34.21         -3.556          74.72          61.22         -3.571          17.27          105.1          8.406         -148.2          96.08          149.6
    0.6745              -34.25         -3.529          74.64          61.18         -3.554           17.2          104.7          8.358         -147.6          95.94          149.4
    0.6963               -34.3         -3.498          74.56          61.12         -3.536          17.12          104.2          8.303         -146.8          95.78          149.2
     0.718              -34.35         -3.461          74.46          61.06         -3.514          17.03          103.7          8.238         -146.0           95.6          149.0
    0.7398              -34.41         -3.419          74.35          60.99         -3.488          16.92          103.1          8.162         -145.0          95.39          148.8
    0.7615              -34.49         -3.368          74.21           60.9         -3.458          16.79          102.3          8.073         -143.9          95.14          148.5
    0.7833              -34.57         -3.309          74.05           60.8         -3.422          16.64          101.4          7.968         -142.5          94.84          148.2
     0.805              -34.68         -3.237          73.86          60.67         -3.379          16.45          100.4          7.841         -140.9          94.48          147.8
    0.8268               -34.8          -3.15          73.62          60.52         -3.327          16.23           99.1          7.687         -138.9          94.04          147.3
    0.8486              -34.96         -3.045          73.34          60.34         -3.263          15.96          97.54            7.5         -136.4          93.52          146.7
    0.8703              -35.14         -2.914          72.99          60.12         -3.184          15.62          95.61          7.268         -133.4          92.86          146.0
    0.8921              -35.38         -2.751          72.55          59.84         -3.086          15.21          93.21           6.98         -129.7          92.05          145.1
    0.9138              -35.68         -2.546          71.99          59.48         -2.963          14.68          90.18          6.616         -125.0          91.02          144.0
    0.9356              -36.06         -2.285          71.29          59.03         -2.806          14.01          86.34          6.154         -119.0          89.71          142.5
    0.9574              -36.54         -1.952          70.39          58.46         -2.605          13.16          81.41          5.562         -111.3          88.04          140.7
    0.9791              -37.16         -1.523          69.24          57.72         -2.348          12.06           75.1          4.803         -101.5           85.9          138.3
     1.001              -37.96        -0.9765          67.76          56.77         -2.018          10.65          67.03          3.833          -88.9          83.16          135.3
     1.023              -38.95        -0.2886          65.91          55.59         -1.604           8.89          56.88          2.614         -73.09          79.72          131.5
     1.044              -40.17         0.5495          63.64          54.14           -1.1           6.74          44.51          1.128         -53.82          75.52          126.9
     1.066              -41.58          1.521          61.02          52.46        -0.5154          4.248          30.18        -0.5941         -31.49          70.66          121.5
     1.088              -43.11          2.573          58.19          50.65         0.1177          1.549          14.66         -2.459         -7.305          65.39          115.7
      1.11              -44.63          3.625          55.35          48.83         0.7508          -1.15        -0.8661         -4.324          16.88          60.12          109.9
     1.131              -46.04          4.597          52.73          47.15          1.335         -3.642          -15.2         -6.046          39.21          55.26          104.5
     1.153              -47.26          5.435          50.47          45.71           1.84         -5.792         -27.57         -7.532          58.48          51.06          99.88
     1.175              -48.26          6.123          48.61          44.52          2.254         -7.556         -37.72         -8.751          74.29          47.62          96.07
     1.197              -49.05           6.67          47.14          43.58          2.583         -8.959         -45.79         -9.721          86.86          44.88          93.05
     1.218              -49.67          7.098          45.98          42.84          2.841         -10.06          -52.1         -10.48           96.7          42.74          90.68
      1.24              -50.16          7.432          45.08          42.26          3.041         -10.91         -57.03         -11.07          104.4          41.07          88.84
     1.262              -50.54          7.692          44.38          41.81          3.198         -11.58         -60.87         -11.53          110.4          39.76           87.4
     1.284              -50.83          7.897          43.83          41.46          3.322         -12.11          -63.9          -11.9          115.1          38.73          86.27
     1.305              -51.07           8.06          43.39          41.18           3.42         -12.53          -66.3         -12.19          118.8          37.92          85.37
     1.327              -51.26          8.191          43.04          40.95          3.498         -12.86         -68.23         -12.42          121.8          37.27          84.64
     1.349              -51.41          8.297          42.75          40.77          3.562         -13.13         -69.79         -12.61          124.3          36.74          84.06
     1.371              -51.54          8.383          42.52          40.62          3.614         -13.35         -71.07         -12.76          126.2           36.3          83.58
     1.393              -51.64          8.455          42.32           40.5          3.657         -13.54         -72.12         -12.89          127.9          35.94          83.18
